sfk_cyclingleg_x_-0.1_y_-0.06_states
version=1
nRows=7
nColumns=53
inDegrees=yes

# SIMM Motion File Header:
name sfk_cyclingleg_x_-0.1_y_-0.06_states
datacolumns 53
datarows 7
otherdata 1
range 0.23356558 0.23454251
endheader
time	/jointset/bb/crank_angle/value	/jointset/bb/crank_angle/speed	/jointset/spindle/pedal_angle_r/value	/jointset/spindle/pedal_angle_r/speed	/jointset/ground_pelvis/pelvis_tilt/value	/jointset/ground_pelvis/pelvis_tilt/speed	/jointset/ground_pelvis/pelvis_list/value	/jointset/ground_pelvis/pelvis_list/speed	/jointset/ground_pelvis/pelvis_rotation/value	/jointset/ground_pelvis/pelvis_rotation/speed	/jointset/ground_pelvis/pelvis_tx/value	/jointset/ground_pelvis/pelvis_tx/speed	/jointset/ground_pelvis/pelvis_ty/value	/jointset/ground_pelvis/pelvis_ty/speed	/jointset/ground_pelvis/pelvis_tz/value	/jointset/ground_pelvis/pelvis_tz/speed	/jointset/hip_r/hip_angle_r/value	/jointset/hip_r/hip_angle_r/speed	/jointset/hip_r/hip_adduction_r/value	/jointset/hip_r/hip_adduction_r/speed	/jointset/hip_r/hip_rotation_r/value	/jointset/hip_r/hip_rotation_r/speed	/jointset/knee_r/knee_angle_r/value	/jointset/knee_r/knee_angle_r/speed	/jointset/knee_r/tib_tx_r/value	/jointset/knee_r/tib_tx_r/speed	/jointset/knee_r/tib_ty_r/value	/jointset/knee_r/tib_ty_r/speed	/jointset/tib_pat_r/pat_angle_r/value	/jointset/tib_pat_r/pat_angle_r/speed	/jointset/tib_pat_r/pat_tx_r/value	/jointset/tib_pat_r/pat_tx_r/speed	/jointset/tib_pat_r/pat_ty_r/value	/jointset/tib_pat_r/pat_ty_r/speed	/jointset/ankle_r/ankle_angle_r/value	/jointset/ankle_r/ankle_angle_r/speed	/jointset/subtalar_r/subtalar_angle_r/value	/jointset/subtalar_r/subtalar_angle_r/speed	/jointset/mtp_r/mtp_angle_r/value	/jointset/mtp_r/mtp_angle_r/speed	/forceset/bifemlh_r/activation	/forceset/bifemlh_r/fiber_length	/forceset/bifemsh_r/activation	/forceset/bifemsh_r/fiber_length	/forceset/glut_max2_r/activation	/forceset/glut_max2_r/fiber_length	/forceset/vas_int_r/activation	/forceset/vas_int_r/fiber_length	/forceset/med_gas_r/activation	/forceset/med_gas_r/fiber_length	/forceset/tib_ant_r/activation	/forceset/tib_ant_r/fiber_length
      0.23356558	   -122.27874020	   -480.13863232	    137.27442652	    526.97205982	      0.00000000	      0.00000000	      0.00000000	      0.00000000	      0.00000000	     -0.00000000	     -0.10000000	      0.00000000	     -0.06000000	      0.00000000	     -0.00000000	     -0.00000000	     52.48763783	   -202.82896751	      4.38462022	     -0.08901773	      0.81864383	     19.07146148	    -59.14854186	    232.20291666	      0.00475292	     -0.01688705	     -0.47570357	      0.07047680	     17.37881536	     -5.14658022	      0.04306567	      0.06842358	     -0.02295537	     -0.00853665	     22.07506473	     17.06077802	      0.00000000	      0.00000000	      0.00000000	      0.00000000	     -0.00462945	      0.13186556	     -0.00462945	      0.16660731	     -0.00462945	      0.13996031	     -0.00462945	      0.12898900	     -0.00462945	      0.14620420	     -0.00462945	      0.11657153
      0.23372800	   -122.35672557	   -480.13863232	    137.36000933	    526.85651842	      0.00000000	      0.00000000	      0.00000000	      0.00000000	      0.00000000	     -0.00000000	     -0.10000000	      0.00000000	     -0.06000000	      0.00000000	     -0.00000000	     -0.00000000	     52.45470083	   -202.74253715	      4.38460562	     -0.09079940	      0.82174039	     19.05820479	    -59.11084664	    231.95913593	      0.00475018	     -0.01692566	     -0.47569213	      0.07037939	     17.37797843	     -5.15903583	      0.04307677	      0.06833423	     -0.02295676	     -0.00852865	     22.07783930	     17.10394245	      0.00000000	      0.00000000	      0.00000000	      0.00000000	     -0.00465036	      0.13185286	     -0.00465036	      0.16662856	     -0.00465036	      0.13993814	     -0.00465036	      0.12896185	     -0.00465036	      0.14621769	     -0.00465036	      0.11656922
      0.23389059	   -122.43478927	   -480.13863232	    137.44565926	    526.74035908	      0.00000000	      0.00000000	      0.00000000	      0.00000000	      0.00000000	     -0.00000000	     -0.10000000	      0.00000000	     -0.06000000	      0.00000000	     -0.00000000	     -0.00000000	     52.42174485	   -202.65544366	      4.38459071	     -0.09257659	      0.82483790	     19.04486049	    -59.07315329	    231.71422280	      0.00474742	     -0.01696398	     -0.47568070	      0.07028165	     17.37713863	     -5.17146009	      0.04308788	      0.06824458	     -0.02295814	     -0.00852061	     22.08062365	     17.14695875	      0.00000000	      0.00000000	      0.00000000	      0.00000000	     -0.00467130	      0.13184015	     -0.00467130	      0.16664982	     -0.00467130	      0.13991595	     -0.00467130	      0.12893470	     -0.00467130	      0.14623119	     -0.00467130	      0.11656690
      0.23405332	   -122.51292022	   -480.13863232	    137.53136401	    526.62359446	      0.00000000	      0.00000000	      0.00000000	      0.00000000	      0.00000000	     -0.00000000	     -0.10000000	      0.00000000	     -0.06000000	      0.00000000	     -0.00000000	     -0.00000000	     52.38877472	   -202.56769630	      4.38457550	     -0.09434901	      0.82793590	     19.03142985	    -59.03546741	    231.46820677	      0.00474466	     -0.01700200	     -0.47566927	      0.07018361	     17.37629609	     -5.18385063	      0.04309897	      0.06815463	     -0.02295953	     -0.00851253	     22.08341740	     17.18981914	      0.00000000	      0.00000000	      0.00000000	      0.00000000	     -0.00469225	      0.13182741	     -0.00469225	      0.16667108	     -0.00469225	      0.13989373	     -0.00469225	      0.12890753	     -0.00469225	      0.14624468	     -0.00469225	      0.11656457
      0.23421622	   -122.59113839	   -480.13863232	    137.61714538	    526.50619075	      0.00000000	      0.00000000	      0.00000000	      0.00000000	      0.00000000	     -0.00000000	     -0.10000000	      0.00000000	     -0.06000000	      0.00000000	     -0.00000000	     -0.00000000	     52.35578212	   -202.47926939	      4.38455999	     -0.09611706	      0.83103516	     19.01790882	    -58.99777963	    231.22101942	      0.00474189	     -0.01703973	     -0.47565784	      0.07008524	     17.37545060	     -5.19621001	      0.04311007	      0.06806438	     -0.02296091	     -0.00850442	     22.08622123	     17.23253287	      0.00000000	      0.00000000	      0.00000000	      0.00000000	     -0.00471322	      0.13181466	     -0.00471322	      0.16669234	     -0.00471322	      0.13987149	     -0.00471322	      0.12888036	     -0.00471322	      0.14625818	     -0.00471322	      0.11656224
      0.23437926	   -122.66941806	   -480.13863232	    137.70297499	    526.38818266	      0.00000000	      0.00000000	      0.00000000	      0.00000000	      0.00000000	     -0.00000000	     -0.10000000	      0.00000000	     -0.06000000	      0.00000000	     -0.00000000	     -0.00000000	     52.32277805	   -202.39018886	      4.38454417	     -0.09788013	      0.83413465	     19.00430123	    -58.96010261	    230.97273672	      0.00473910	     -0.01707715	     -0.47564643	      0.06998656	     17.37460243	     -5.20853354	      0.04312116	      0.06797383	     -0.02296230	     -0.00849628	     22.08903422	     17.27508418	      0.00000000	      0.00000000	      0.00000000	      0.00000000	     -0.00473421	      0.13180188	     -0.00473421	      0.16671361	     -0.00473421	      0.13984924	     -0.00473421	      0.12885319	     -0.00473421	      0.14627167	     -0.00473421	      0.11655989
      0.23454251	   -122.74780102	   -480.13863232	    137.78889854	    526.26950311	      0.00000000	      0.00000000	      0.00000000	      0.00000000	      0.00000000	      0.00000000	     -0.10000000	      0.00000000	     -0.06000000	      0.00000000	     -0.00000000	     -0.00000000	     52.28974504	   -202.30040378	      4.38452805	     -0.09963910	      0.83723600	     18.99059918	    -58.92241651	    230.72322040	      0.00473631	     -0.01711429	     -0.47563501	      0.06988753	     17.37375113	     -5.22082716	      0.04313225	      0.06788296	     -0.02296369	     -0.00848810	     22.09185785	     17.31749402	      0.00000000	      0.00000000	      0.00000000	      0.00000000	     -0.00475523	      0.13178908	     -0.00475523	      0.16673488	     -0.00475523	      0.13982695	     -0.00475523	      0.12882600	     -0.00475523	      0.14628516	     -0.00475523	      0.11655754
